<?xml version="1.0" encoding="UTF-8"?>
<svg xmlns="http://www.w3.org/2000/svg" xmlns:xlink="http://www.w3.org/1999/xlink" width="136px" height="136px" viewBox="0 0 200 200" version="1.1">
<defs>
<linearGradient id="linear0" gradientUnits="userSpaceOnUse" x1="26.5" y1="7" x2="4" y2="28" gradientTransform="matrix(6.25,0,0,6.25,0,0)">
<stop offset="0" style="stop-color:rgb(35.686275%,81.568627%,40%);stop-opacity:1;"/>
<stop offset="1" style="stop-color:rgb(15.294118%,70.588235%,24.313725%);stop-opacity:1;"/>
</linearGradient>
</defs>
<g id="surface1">
<path style=" stroke:none;fill-rule:evenodd;fill:rgb(74.901961%,78.431373%,81.568627%);fill-opacity:1;" d="M 100 193.75 C 148.324219 193.75 187.5 154.574219 187.5 106.25 C 187.5 57.925781 148.324219 18.75 100 18.75 C 51.675781 18.75 12.5 57.925781 12.5 106.25 C 12.5 121.941406 16.632812 136.671875 23.867188 149.40625 L 12.5 193.75 L 58.21875 183.148438 C 70.632812 189.910156 84.867188 193.75 100 193.75 Z M 100 180.289062 C 140.890625 180.289062 174.039062 147.140625 174.039062 106.25 C 174.039062 65.359375 140.890625 32.210938 100 32.210938 C 59.109375 32.210938 25.960938 65.359375 25.960938 106.25 C 25.960938 122.039062 30.902344 136.671875 39.324219 148.6875 L 32.691406 173.558594 L 58 167.230469 C 69.933594 175.464844 84.402344 180.289062 100 180.289062 Z M 100 180.289062 "/>
<path style=" stroke:none;fill-rule:nonzero;fill:url(#linear0);" d="M 175 100 C 175 141.421875 141.421875 175 100 175 C 84.203125 175 69.542969 170.113281 57.453125 161.773438 L 31.816406 168.183594 L 38.535156 142.988281 C 30.003906 130.816406 25 115.992188 25 100 C 25 58.578125 58.578125 25 100 25 C 141.421875 25 175 58.578125 175 100 Z M 175 100 "/>
<path style=" stroke:none;fill-rule:evenodd;fill:rgb(100%,100%,100%);fill-opacity:1;" d="M 100 187.5 C 148.324219 187.5 187.5 148.324219 187.5 100 C 187.5 51.675781 148.324219 12.5 100 12.5 C 51.675781 12.5 12.5 51.675781 12.5 100 C 12.5 115.691406 16.632812 130.421875 23.867188 143.15625 L 12.5 187.5 L 58.21875 176.898438 C 70.632812 183.660156 84.867188 187.5 100 187.5 Z M 100 174.039062 C 140.890625 174.039062 174.039062 140.890625 174.039062 100 C 174.039062 59.109375 140.890625 25.960938 100 25.960938 C 59.109375 25.960938 25.960938 59.109375 25.960938 100 C 25.960938 115.789062 30.902344 130.421875 39.324219 142.4375 L 32.691406 167.308594 L 58 160.980469 C 69.933594 169.214844 84.402344 174.039062 100 174.039062 Z M 100 174.039062 "/>
<path style=" stroke:none;fill-rule:nonzero;fill:rgb(100%,100%,100%);fill-opacity:1;" d="M 78.125 59.375 C 76.046875 55.195312 72.851562 55.566406 69.628906 55.566406 C 63.867188 55.566406 54.882812 62.46875 54.882812 75.3125 C 54.882812 85.839844 59.523438 97.363281 75.152344 114.601562 C 90.238281 131.238281 110.058594 139.84375 126.515625 139.550781 C 142.96875 139.257812 146.355469 125.097656 146.355469 120.3125 C 146.355469 118.195312 145.039062 117.136719 144.132812 116.851562 C 138.527344 114.160156 128.183594 109.144531 125.828125 108.203125 C 123.476562 107.261719 122.25 108.535156 121.484375 109.226562 C 119.351562 111.261719 115.121094 117.253906 113.671875 118.601562 C 112.222656 119.953125 110.0625 119.269531 109.164062 118.757812 C 105.859375 117.433594 96.894531 113.445312 89.746094 106.515625 C 80.90625 97.949219 80.390625 95 78.722656 92.375 C 77.390625 90.277344 78.371094 88.988281 78.859375 88.425781 C 80.761719 86.230469 83.390625 82.835938 84.570312 81.152344 C 85.75 79.464844 84.8125 76.90625 84.25 75.3125 C 81.835938 68.457031 79.789062 62.71875 78.125 59.375 Z M 78.125 59.375 "/>
</g>
</svg>
