<svg width="136" height="60" viewBox="0 0 136 60" fill="none" xmlns="http://www.w3.org/2000/svg">
<path d="M68.43 40.2819H66.3231L66.3112 40.8051C66.2993 41.1823 66.2755 41.6082 66.1683 42.0827C66.085 42.4477 65.9302 42.8614 65.716 43.2629H65.4541V44.8203H66.1445V43.8226H68.1562V44.8203H68.8586V43.2629H68.43V40.2819ZM67.692 43.2629H66.3945C66.5373 42.9709 66.6802 42.618 66.7635 42.2895C66.8349 41.9732 66.8944 41.5595 66.9064 41.1823L66.9183 40.8538H67.692V43.2629ZM71.1441 40.1968C70.8584 40.1968 70.4894 40.2941 70.2275 40.6105C70.2275 40.4766 70.2037 40.3428 70.168 40.1968L69.4775 40.3184C69.5132 40.4766 69.549 40.7321 69.549 41.1945V45.307L70.2751 45.1123V44.0781C70.2751 43.9443 70.2632 43.7618 70.2513 43.5914C70.5846 43.8469 70.8941 43.8834 71.0607 43.8834C71.5012 43.8834 71.7869 43.7009 71.9535 43.5427C72.2392 43.2629 72.4535 42.764 72.4535 41.9853C72.4535 41.1823 72.2154 40.7565 71.9892 40.5131C71.8226 40.3671 71.5488 40.1968 71.1441 40.1968ZM71.3345 43.1047C71.2274 43.2142 71.0964 43.2507 70.9536 43.2507C70.6798 43.2507 70.4417 43.1169 70.2632 42.9344V41.2067C70.4179 41.0485 70.6679 40.8416 71.0131 40.8416C71.156 40.8416 71.2869 40.8781 71.4059 40.9998C71.6083 41.2066 71.644 41.596 71.644 42.0462C71.644 42.326 71.644 42.8249 71.3345 43.1047ZM75.2032 40.2819H76.0127L74.739 44.0538C74.5604 44.6013 74.3699 44.8203 74.2628 44.9298C74.0485 45.161 73.8105 45.2461 73.4415 45.3313L73.1915 44.8325C73.5248 44.7473 73.6795 44.6256 73.7629 44.5283C73.8462 44.4431 74.0128 44.2484 74.12 43.8226H73.8819C73.751 43.3237 73.6676 43.0561 73.5843 42.8249L72.763 40.3549L73.5248 40.2211L74.1557 42.3747C74.2152 42.5572 74.2866 42.9222 74.3342 43.1656H74.3461C74.4176 42.8492 74.5128 42.4964 74.5961 42.2165L75.2032 40.2819ZM78.56 42.1922C78.6791 42.3139 78.7862 42.5085 78.7862 42.7884C78.7862 43.1047 78.6553 43.3724 78.4767 43.5549C78.2505 43.7739 77.8815 43.9078 77.4292 43.9078C76.9411 43.9078 76.6555 43.7861 76.4888 43.6888C76.3579 43.6157 76.2388 43.5184 76.1793 43.4697L76.5126 42.9709C76.6197 43.0682 76.7388 43.1412 76.8578 43.2021C77.0245 43.2872 77.1911 43.3237 77.3578 43.3237C77.572 43.3237 77.7268 43.2629 77.8101 43.1777C77.9053 43.0804 77.9649 42.9344 77.9649 42.7884C77.9649 42.618 77.9053 42.4964 77.822 42.4234C77.6673 42.2895 77.4292 42.2652 77.3102 42.2652H76.9411V41.6812H77.334C77.4649 41.6812 77.6435 41.669 77.7744 41.5473C77.8577 41.4622 77.8934 41.3648 77.8934 41.2432C77.8934 41.1336 77.8696 41.0241 77.7744 40.939C77.6673 40.8416 77.5006 40.793 77.334 40.793C77.1197 40.793 76.9411 40.866 76.8935 40.8781C76.7864 40.9146 76.6674 40.9998 76.584 41.0606L76.2864 40.574C76.4293 40.4766 76.5959 40.3793 76.7626 40.3184C77.0126 40.2211 77.2625 40.1968 77.4768 40.1968C77.7744 40.1968 78.1553 40.2576 78.4291 40.5131C78.5481 40.6348 78.691 40.8416 78.691 41.1702C78.691 41.3892 78.6196 41.5838 78.4529 41.7542C78.3815 41.8272 78.2744 41.9123 78.1196 41.961C78.2982 41.9854 78.4529 42.0827 78.56 42.1922ZM80.8574 41.5838H80.3575V40.1968L79.6195 40.3428V43.8104H80.917C81.3336 43.8104 81.6907 43.7496 81.9407 43.4941C82.0716 43.3602 82.2026 43.1169 82.2026 42.7154C82.2026 42.5085 82.1668 42.18 81.9169 41.9245C81.6074 41.596 81.1431 41.5838 80.8574 41.5838ZM81.286 43.1169C81.155 43.2507 80.9408 43.2751 80.7979 43.2751H80.3694V42.1435H80.7741C80.9289 42.1435 81.1312 42.1557 81.2741 42.3017C81.405 42.4234 81.4169 42.618 81.4169 42.7275C81.4169 42.8127 81.405 42.9952 81.286 43.1169ZM82.9287 40.5983C82.8096 40.72 82.6668 40.939 82.6668 41.2797C82.6668 41.5595 82.762 41.7542 82.8811 41.888C83.0001 42.0097 83.1668 42.1192 83.4048 42.1435V42.1557C83.2977 42.18 83.2025 42.2287 83.1191 42.3139C83.0239 42.399 82.9882 42.4964 82.9406 42.618L82.8335 42.9344C82.7977 43.0439 82.762 43.1412 82.6787 43.2142C82.643 43.2386 82.5716 43.2994 82.4168 43.3359L82.3097 43.3602L82.4406 43.8834L82.7025 43.8591C82.8573 43.8469 83.143 43.8226 83.3334 43.6401C83.4524 43.5184 83.5001 43.3481 83.5358 43.2021L83.631 42.8492C83.6548 42.7519 83.6905 42.6059 83.7857 42.5207C83.8929 42.4112 84.0238 42.4112 84.1429 42.4112H84.4524V43.8104H85.2023V40.2819H83.9286C83.6072 40.2819 83.2144 40.3184 82.9287 40.5983ZM84.4643 40.8416V41.8758H84.0357C83.8334 41.8758 83.6786 41.815 83.5834 41.7177C83.4643 41.6082 83.4524 41.4622 83.4524 41.3405C83.4524 41.2432 83.4762 41.085 83.5834 40.9755C83.7143 40.8416 83.9286 40.8416 84.0357 40.8416H84.4643ZM90.1304 41.9488C90.2851 41.9002 90.3923 41.815 90.4756 41.7298C90.6065 41.5717 90.6661 41.4135 90.6661 41.1823C90.6661 41.012 90.6304 40.7686 90.4399 40.574C90.178 40.3063 89.7971 40.2941 89.5471 40.2941H88.1187V43.8226H89.6662C90.2256 43.8226 90.4875 43.5792 90.547 43.5306C90.6661 43.4211 90.8208 43.2021 90.8208 42.8005C90.8208 42.5572 90.7613 42.3625 90.5946 42.18C90.5351 42.1314 90.3804 41.9975 90.1304 41.9488ZM88.8567 40.8051H89.3686C89.5114 40.8051 89.6781 40.8051 89.7852 40.9146C89.8923 41.012 89.9161 41.158 89.9161 41.2675C89.9161 41.377 89.8923 41.4987 89.7971 41.596C89.6662 41.7177 89.4638 41.7298 89.3448 41.7298H88.8567V40.8051ZM89.8923 43.1534C89.7733 43.2629 89.559 43.2872 89.4043 43.2872H88.8567V42.2165H89.4043C89.5352 42.2165 89.7257 42.2287 89.8566 42.326C90.0114 42.4477 90.0352 42.6424 90.0352 42.7762C90.0352 42.9101 90.0114 43.0439 89.8923 43.1534ZM93.5944 42.9709L93.9515 43.4332C93.642 43.7496 93.3087 43.8956 92.8444 43.8956C91.904 43.8956 91.3803 43.2142 91.3803 42.0827C91.3803 40.793 92.1302 40.1846 92.904 40.1846C93.2849 40.1846 93.5587 40.2698 93.8563 40.574L93.4872 41.085C93.2849 40.9025 93.1063 40.8173 92.904 40.8173C92.6659 40.8173 92.4635 40.939 92.3564 41.1702C92.2493 41.3892 92.2135 41.7177 92.2135 42.1557C92.2135 42.6424 92.285 42.9466 92.4516 43.1169C92.5587 43.2386 92.7254 43.3237 92.904 43.3237C93.142 43.3237 93.3682 43.2021 93.5944 42.9709ZM95.8918 40.1968C95.4513 40.1968 95.118 40.3428 94.8323 40.6713C94.5348 41.0241 94.4038 41.4257 94.4038 42.0462C94.4038 43.1777 95.0228 43.8956 95.9989 43.8956C96.4632 43.8956 96.8798 43.7374 97.2369 43.4332L96.9393 42.9709C96.6774 43.2021 96.4036 43.3237 96.0822 43.3237C95.4037 43.3237 95.2252 42.8127 95.2252 42.3139V42.253H97.2845V42.0949C97.2845 41.2675 97.1298 40.8416 96.8322 40.5618C96.5465 40.2819 96.2251 40.1968 95.8918 40.1968ZM95.2371 41.6812C95.2371 41.1093 95.4751 40.7686 95.8918 40.7686C96.2608 40.7686 96.5108 41.1093 96.5108 41.6812H95.2371ZM100.141 40.8538H98.8201V43.8104H98.0701V40.2819H100.225L100.141 40.8538ZM103.082 40.2819H100.975L100.963 40.8051C100.951 41.1823 100.927 41.6082 100.82 42.0827C100.737 42.4477 100.594 42.8614 100.368 43.2629H100.106V44.8203H100.796V43.8226H102.808V44.8203H103.498V43.2629H103.07V40.2819H103.082ZM102.332 43.2629H101.034C101.177 42.9709 101.32 42.618 101.403 42.2895C101.475 41.9732 101.534 41.5595 101.546 41.1823L101.558 40.8538H102.332V43.2629ZM106.605 42.6545L106.617 41.6447C106.617 41.1215 106.617 40.939 106.557 40.7808C106.403 40.3915 106.046 40.1968 105.51 40.1968C104.986 40.1968 104.558 40.3428 104.046 40.6835L104.379 41.231C104.379 41.231 104.915 40.8295 105.415 40.8295C105.819 40.8295 105.891 41.0485 105.891 41.45V41.6325H105.653C104.546 41.6325 103.951 42.0462 103.951 42.8614C103.951 43.4697 104.308 43.9078 105.093 43.9078C105.462 43.9078 105.76 43.8104 106.046 43.4941C106.129 43.7131 106.307 43.8834 106.522 43.9686L106.915 43.4819C106.641 43.2872 106.593 43.1291 106.605 42.6545ZM105.867 42.9952C105.712 43.2142 105.486 43.3481 105.248 43.3481C104.95 43.3481 104.772 43.1534 104.772 42.8127C104.772 42.3625 104.998 42.1435 105.748 42.1435C105.808 42.1435 105.879 42.1557 105.879 42.1557L105.867 42.9952ZM111.248 42.9709L111.605 43.4332C111.295 43.7496 110.962 43.8956 110.498 43.8956C109.557 43.8956 109.033 43.2142 109.033 42.0827C109.033 40.793 109.783 40.1846 110.557 40.1846C110.938 40.1846 111.2 40.2698 111.509 40.574L111.128 41.085C110.926 40.9025 110.748 40.8173 110.545 40.8173C110.307 40.8173 110.105 40.939 109.998 41.1702C109.89 41.3892 109.855 41.7177 109.855 42.1557C109.855 42.6424 109.926 42.9466 110.093 43.1169C110.2 43.2386 110.367 43.3237 110.545 43.3237C110.795 43.3237 111.021 43.2021 111.248 42.9709ZM113.307 40.2819H115.973L115.878 40.8538H114.985V43.8104H114.235V40.8538H113.307V40.2819ZM117.58 40.1968C116.664 40.1968 116.068 40.9268 116.068 42.0462C116.068 43.1777 116.652 43.8956 117.592 43.8956C118.533 43.8956 119.116 43.1899 119.116 42.0462C119.128 40.939 118.568 40.1968 117.58 40.1968ZM117.604 43.3359C117.164 43.3359 116.914 43.0317 116.914 41.9975C116.914 41.1336 117.116 40.7686 117.592 40.7686C118.033 40.7686 118.306 41.0728 118.306 42.0705C118.294 42.9587 118.044 43.3359 117.604 43.3359ZM121.461 40.2819C121.199 40.2819 120.973 40.3428 120.77 40.501C120.616 40.6105 120.509 40.7443 120.425 40.8903L120.39 40.8781L120.413 40.6591C120.437 40.4523 120.52 40.0021 121.032 39.7831L121.925 39.4059C122.032 39.3694 122.163 39.3207 122.33 39.2356C122.485 39.1626 122.592 39.1139 122.723 39.0287L122.449 38.4082L122.187 38.5542L121.116 39.0166C120.866 39.1261 120.604 39.2721 120.366 39.5032C120.151 39.7223 120.032 39.9291 119.949 40.2089C119.794 40.7078 119.782 41.2432 119.782 41.6568C119.782 42.2895 119.806 42.9222 120.199 43.3967C120.497 43.7618 120.878 43.8956 121.306 43.8956C121.842 43.8956 122.211 43.6644 122.437 43.3967C122.627 43.1656 122.842 42.7519 122.842 42.0705C122.842 41.2918 122.58 40.9025 122.449 40.7443C122.258 40.5253 121.949 40.2819 121.461 40.2819ZM121.818 43.0439C121.687 43.2751 121.497 43.3359 121.294 43.3359C121.104 43.3359 120.913 43.2751 120.782 43.0439C120.663 42.8249 120.604 42.4112 120.604 42.107C120.604 41.815 120.639 41.4013 120.782 41.158C120.913 40.9268 121.104 40.866 121.294 40.866C121.485 40.866 121.675 40.9268 121.818 41.158C121.961 41.3892 121.997 41.8393 121.997 42.107C121.997 42.3747 121.961 42.8005 121.818 43.0439ZM124.949 40.1968C124.032 40.1968 123.437 40.9268 123.437 42.0462C123.437 43.1777 124.02 43.8956 124.961 43.8956C125.901 43.8956 126.484 43.1899 126.484 42.0462C126.496 40.939 125.937 40.1968 124.949 40.1968ZM124.972 43.3359C124.532 43.3359 124.282 43.0317 124.282 41.9975C124.282 41.1336 124.484 40.7686 124.961 40.7686C125.401 40.7686 125.675 41.0728 125.675 42.0705C125.663 42.9587 125.413 43.3359 124.972 43.3359ZM127.46 39.1504L127.841 38.9314C127.877 38.9801 127.925 39.0531 127.984 39.1139C128.091 39.2356 128.27 39.3451 128.567 39.3451C128.853 39.3451 129.008 39.2477 129.127 39.1139C129.186 39.0531 129.234 38.9801 129.27 38.9314L129.639 39.1504C129.52 39.4667 129.317 39.6493 129.258 39.6858C129.02 39.8683 128.758 39.9048 128.544 39.9048C128.329 39.9048 128.067 39.8683 127.829 39.6858C127.782 39.6493 127.579 39.4789 127.46 39.1504ZM129.96 40.1968V43.8104H129.21V42.2044C129.21 41.8637 129.222 41.6203 129.246 41.2918H129.234C129.139 41.5717 128.996 41.8758 128.889 42.0705L127.936 43.8104H127.163V40.3428L127.913 40.1968V42.0462C127.913 42.3017 127.901 42.6059 127.889 42.837H127.901C128.02 42.4964 128.151 42.2165 128.27 42.0097L129.186 40.3306L129.96 40.1968Z" fill="#F29100"/>
<path fill-rule="evenodd" clip-rule="evenodd" d="M130.841 23.1626C131.02 23.4425 131.032 24.1847 130.008 24.501C128.698 24.9026 127.33 23.8562 125.865 24.3307C125.794 25.2432 125.615 27.3238 125.449 29.5261C125.282 31.8378 125.127 34.2713 125.151 35.5853C125.163 36.4979 122.854 36.9359 122.997 35.0013C123.056 34.2834 123.128 33.3952 123.199 32.4705C123.199 32.4584 123.199 32.4462 123.199 32.434C123.139 29.9033 123.163 27.2021 123.389 25.0972C123.389 25.0729 123.389 25.0607 123.401 25.0364C123.437 24.793 123.604 24.3794 123.651 24.1117C121.699 24.0022 119.402 24.8904 118.926 23.6615C118.818 23.3938 118.854 22.7855 119.366 22.6638C122.628 21.9094 127.437 22.3961 128.687 22.4935C129.936 22.5786 130.567 22.7368 130.841 23.1626Z" fill="#832081"/>
<path d="M73.989 23.2722C73.989 23.552 73.2034 26.0828 73.1796 26.1436C73.1677 26.168 71.5488 32.7626 71.2988 33.3588C71.275 33.4074 71.2512 33.4683 71.2274 33.5169C70.4774 35.9625 69.5013 36.7169 67.93 37.1184C67.8943 37.1184 67.8586 37.1184 67.8229 37.1306C67.5848 37.1428 67.3349 37.1549 67.073 37.1549C66.8111 37.1549 66.5849 37.0698 66.4183 36.8994C66.2516 36.7291 66.1683 36.4979 66.1683 36.2302C66.1683 35.7679 66.3826 35.4759 66.823 35.3785C66.9182 35.3664 67.0254 35.3542 67.1206 35.3542C67.1682 35.3542 67.2277 35.3542 67.2753 35.3542C68.3705 35.3542 68.9538 34.6242 69.6561 32.6531C69.6918 32.6044 69.7156 32.5557 69.7394 32.5314C69.7632 32.5071 69.7751 32.4827 69.7751 32.4827C68.7276 31.0957 68.0253 29.9763 67.6682 29.1003C67.3944 28.4189 66.9301 27.5794 66.2754 26.5938C65.4898 25.3893 65.1208 24.2699 64.8946 23.8441C64.7994 23.6737 64.7637 23.5034 64.7637 23.3452C64.7637 23.0897 64.8589 22.8707 65.0494 22.676C65.2398 22.4813 65.4541 22.3962 65.7041 22.3962C65.9898 22.3962 66.2397 22.5422 66.454 22.8342C66.6206 23.0897 66.8587 23.4669 67.1801 23.9901C67.8229 24.9756 68.1086 25.949 68.311 26.3018C68.7633 27.0562 69.1204 27.7619 69.3823 28.4189C69.5966 28.9664 70.0965 29.66 70.1203 29.5991C70.1203 29.5991 71.1441 26.898 71.3583 25.7178C71.3702 25.6935 71.7868 23.8927 72.2154 23.0045C72.4058 22.5787 72.6915 22.3718 73.0605 22.3718C73.3105 22.3718 73.5367 22.457 73.7152 22.6395C73.8938 22.7855 73.989 23.0045 73.989 23.2722Z" fill="#832081"/>
<path d="M89.333 30.9619C89.333 32.7018 89.2377 33.3953 88.3331 34.539C87.357 35.7801 86.3571 36.4493 84.762 35.9748C83.9644 35.7436 83.2383 35.7436 83.2383 35.7436C83.2383 35.7436 83.3454 37.0455 83.1312 37.2767C82.905 37.5078 82.8336 37.5443 82.4884 37.5443C82.1432 37.5443 81.8575 37.4227 81.6432 37.1915C81.417 36.9603 81.3099 36.6683 81.3099 36.3154C81.3099 35.5246 81.3456 35.9869 81.3456 35.5732C80.5243 35.9869 80.5719 35.9991 79.4053 35.9991C77.8102 35.9991 76.6079 35.5489 75.7033 34.174C74.9057 32.9695 74.751 31.5216 74.751 29.8182C74.751 28.0783 75.0248 26.2532 75.8699 25.0121C76.8222 23.5764 77.3222 22.8586 79.1672 22.8586C79.572 22.8586 80.2624 23.1749 80.798 23.4426C81.0956 23.5886 81.4527 23.4061 81.4885 23.0776C81.5956 22.238 81.7741 21.6418 82.3812 21.6418C82.6907 21.6418 82.9526 21.7514 83.1669 21.9825C83.3811 22.2137 83.4883 22.4814 83.4883 22.8099C83.4883 22.7004 83.4526 23.0776 83.3692 23.9171C83.7621 23.4304 84.6191 22.9437 85.4286 22.9437C86.976 22.9437 88.3212 23.9171 89.083 25.4623C89.6425 26.6304 89.333 29.0638 89.333 30.9619ZM81.1552 32.8235C81.1432 31.3026 81.3218 28.9056 81.4051 27.6038C81.548 25.5962 80.5957 25.219 79.3934 24.927C79.2982 24.9026 79.2149 24.8905 79.1553 24.8905C78.2388 24.8905 77.965 25.3042 77.465 26.2897C77.0484 27.0806 76.6794 29.0638 76.6794 30.0859C76.6794 31.0714 76.7746 32.2273 77.1436 32.9695C77.596 33.9063 78.6554 34.0037 79.5243 34.1497C80.8695 34.3809 81.048 32.8721 81.1552 32.8235ZM87.4998 31.4973C87.4998 28.5285 87.595 26.022 86.4285 25.1582C86.0357 24.8661 85.25 24.6715 84.6548 25C84.2144 25.2433 83.7621 25.438 83.4526 26.2289C83.5597 28.0904 83.2264 31.3756 83.2264 33.4197C84.1668 34.3809 86.2499 34.3444 86.7737 33.59C87.2498 32.933 87.4998 32.568 87.4998 31.4973Z" fill="#832081"/>
<path fill-rule="evenodd" clip-rule="evenodd" d="M97.9988 33.3222C97.7013 32.434 98.7964 27.1778 98.7607 26.3869C98.7131 25.1702 98.4274 24.0509 98.0703 23.5277C97.6655 22.9315 97.0346 22.4691 96.4633 22.3231C95.2729 22.0189 93.9992 22.603 93.4993 23.2843C92.9993 23.9657 92.4279 25.3649 92.4755 26.3869C92.4993 26.8615 93.1779 27.2752 93.7969 26.7155C94.4754 26.1071 94.0944 24.6105 95.261 24.209C95.6657 24.063 95.9752 24.136 96.5347 24.9269C97.0466 25.6569 97.2965 27.4212 96.9394 28.139C96.1657 29.6356 94.4754 28.7109 93.3921 28.9421C92.2732 29.1854 91.3209 30.4995 91.0352 32.0325C90.7138 33.8211 91.5113 35.4393 92.4874 35.8408C95.4038 37.0454 98.0226 35.8165 98.6297 35.0135C99.1892 34.2591 98.2964 34.2104 97.9988 33.3222ZM96.0347 33.8454C95.9871 34.1861 95.7371 34.4051 95.4515 34.5755C94.8087 34.8431 93.9516 34.904 93.3921 34.3929C92.9517 33.7846 92.7255 33.0302 92.8803 32.215C93.0826 31.412 93.7254 30.5481 94.5825 30.4386C95.1896 30.4508 95.9633 30.3048 96.2133 30.9861C96.368 31.9838 95.7729 32.8477 96.0347 33.8454Z" fill="#832081"/>
<path fill-rule="evenodd" clip-rule="evenodd" d="M115.318 28.869C116.164 28.9055 118.449 29.4044 118.925 28.2363C119.08 27.847 118.937 27.5063 118.771 27.409C117.842 26.8858 118.056 25.6204 117.723 24.7687C117.449 24.063 116.997 23.406 116.295 22.9436C115.342 22.3109 113.461 22.4326 112.771 23.1748C111.902 24.1238 111.462 24.8782 111.033 26.2652C110.628 27.5793 110.224 29.5747 110.402 31.485C110.664 34.4781 112.545 35.5853 114.545 36.218C116.08 36.7047 117.83 35.3663 118.342 34.5997C119.009 33.602 119.056 31.2538 117.628 31.3998C116.437 31.5215 117.009 32.7625 116.592 33.5777C116.295 34.1739 115.545 34.5267 114.938 34.3564C114.461 34.2226 112.366 33.31 112.366 31.7891C112.366 30.5359 111.735 29.5625 112.521 28.8447C113.081 28.3337 114.176 28.8203 115.318 28.869ZM114.39 24.4645C115.021 24.2333 115.735 24.6957 115.926 25.2067C116.116 25.7177 116.378 26.5208 115.997 26.7641C115.449 27.1291 114.378 26.6668 113.652 26.6911C113.414 26.7033 113.223 26.5938 113.212 26.3747C113.2 26.0827 113.604 24.7443 114.39 24.4645Z" fill="#832081"/>
<path fill-rule="evenodd" clip-rule="evenodd" d="M102.701 22.7854C102.499 22.2987 101.725 22.25 101.249 22.4568C100.261 22.8949 100.618 24.1602 100.618 24.8538C100.618 26.6788 100.392 27.3967 100.642 28.9906C100.903 30.5845 100.725 34.843 100.808 35.6947C100.892 36.4856 102.225 36.4126 102.332 35.573C102.427 34.843 102.522 29.2948 102.546 28.6499C102.57 28.0659 102.522 26.7153 102.677 26.2408C102.844 25.7785 102.903 23.272 102.701 22.7854Z" fill="#832081"/>
<path fill-rule="evenodd" clip-rule="evenodd" d="M102.939 30.8519C105.105 30.6816 106.962 29.9394 107.189 30.8154C107.236 31.0223 108.593 30.6573 108.629 30.4504C108.724 29.9029 107.272 27.0071 107.129 27.725C106.808 29.2946 104.082 28.9904 102.998 28.8809C101.534 28.747 101.475 30.9614 102.939 30.8519Z" fill="#832081"/>
<path fill-rule="evenodd" clip-rule="evenodd" d="M109.224 23.7101C109.117 25.4743 108.95 26.2044 109.021 26.9466C109.045 27.2386 109.093 35.4392 108.914 35.9989C108.736 36.5465 107.569 36.5221 107.355 36.1449C106.724 35.0256 107.379 31.8621 107.272 30.9252C107.224 30.5359 107.176 27.3602 107.176 27.1412C107.224 25.3892 107.331 24.501 107.414 23.1017C107.45 22.3109 109.319 21.9459 109.224 23.7101Z" fill="#832081"/>
<path d="M32.7905 13.5261C22.0058 13.5261 12.8876 20.8021 9.87598 30.8157L10.7688 30.9982C13.6852 21.4104 22.4463 14.4387 32.8024 14.4387C44.2776 14.4387 53.7886 22.9922 55.5742 34.2103L56.4312 33.9548C54.5147 22.3595 44.6585 13.5261 32.7905 13.5261Z" fill="#0DA039"/>
<path d="M32.7783 12.6135C21.5651 12.6135 12.0779 20.2058 8.98291 30.6331L9.87569 30.8156C12.8873 20.802 22.0055 13.5261 32.7902 13.5261C44.6701 13.5261 54.5263 22.3594 56.419 33.9547L57.2642 33.6992C55.2525 21.7267 45.0629 12.6135 32.7783 12.6135Z" fill="#0DA039"/>
<path d="M32.7188 9C19.7795 9 8.85197 17.8334 5.3999 29.9275L6.29268 30.11C9.64951 18.4296 20.2081 9.90037 32.7307 9.90037C46.2414 9.90037 57.4666 19.8409 59.8235 32.9571L60.6805 32.7016C58.2165 19.2083 46.6342 9 32.7188 9Z" fill="#F29100"/>
<path d="M32.7305 9.90039C20.2198 9.90039 9.66122 18.4296 6.29248 30.11L7.18526 30.3047C10.4707 19.0379 20.6602 10.8129 32.7424 10.8129C45.8484 10.8129 56.7283 20.4737 58.9781 33.2127L59.8352 32.9572C57.4783 19.841 46.2412 9.90039 32.7305 9.90039Z" fill="#F29100"/>
<path d="M32.7427 10.8008C20.6605 10.8008 10.4591 19.0136 7.18555 30.2804L8.07832 30.4751C11.2685 19.6341 21.1009 11.7255 32.7546 11.7255C45.4439 11.7255 55.9906 21.1064 58.1213 33.4682L58.9665 33.2127C56.7405 20.4737 45.8487 10.8008 32.7427 10.8008Z" fill="#FFDD00"/>
<path d="M32.7544 11.7134C21.1007 11.7134 11.2683 19.622 8.07812 30.463L8.9709 30.6576C12.0659 20.2304 21.5531 12.6381 32.7663 12.6381C45.0509 12.6381 55.2524 21.7513 57.2641 33.7238L58.1212 33.4683C56.0023 21.0943 45.4557 11.7134 32.7544 11.7134Z" fill="#FFDD00"/>
<path d="M32.8018 14.4265C22.4456 14.4265 13.6845 21.3983 10.7681 30.986L11.6608 31.1807C14.4939 22.0067 22.8979 15.3391 32.8137 15.3391C43.8722 15.3391 53.0499 23.6249 54.7164 34.4537L55.5735 34.1982C53.776 22.98 44.265 14.4265 32.8018 14.4265Z" fill="#3DB6E9"/>
<path d="M32.8136 15.0837C22.8383 15.0837 14.4105 21.8 11.5894 31.0349L12.4583 31.2174C15.1843 22.3719 23.2788 15.9598 32.8255 15.9598C43.4793 15.9598 52.3118 23.9293 53.9188 34.3687L54.7402 34.1132C53.0141 23.3209 43.8602 15.0837 32.8136 15.0837Z" fill="#3DB6E9"/>
<path d="M60.871 32.288C60.6924 32.0203 60.3234 31.9351 59.9306 32.0325C59.514 32.142 58.8831 32.3732 58.145 32.6408C57.4308 32.9085 56.6095 33.2127 55.8476 33.4439C53.6812 34.1131 51.598 34.2469 50.2291 34.2469C50.1696 34.2469 50.1101 34.2469 50.0505 34.2469C50.0505 34.2469 48.2531 33.2005 47.5389 32.2271C46.6223 30.9618 46.6461 30.7549 46.2771 29.9032C45.9319 29.1124 45.5748 28.6378 44.7177 28.65C43.8606 28.6743 43.2416 28.942 42.5512 29.0758C41.5989 29.2584 40.8371 29.3435 39.5277 29.4774C37.7898 29.6599 36.9327 29.6234 35.8019 29.745C34.2901 29.9032 32.8259 29.9519 31.9213 29.8789C31.3142 29.8302 30.6952 29.6964 29.4215 28.942C28.2192 28.2241 27.505 27.4211 26.3622 26.1436C25.529 25.2067 24.9933 24.7322 24.4339 24.7565C23.8625 24.7808 23.4578 24.8417 22.9697 25.6934C22.3031 26.8249 21.6841 27.8835 21.0056 28.5527C19.8867 29.672 18.9701 30.2926 18.5058 30.4872C16.0061 31.558 14.1134 30.8279 12.1493 30.5724C10.7446 30.3899 7.49493 29.5504 6.56644 29.3679C5.07849 29.0637 5.138 30.1587 5.25704 30.3777C5.67367 31.1321 6.55454 30.8036 8.80433 31.3024C10.8042 31.7526 12.5064 32.4583 14.28 32.6043C15.3156 32.6895 15.6489 35.1108 14.5657 37.7632C13.8396 39.5518 13.5063 43.8955 12.7564 45.5137C11.8279 47.5213 12.5897 47.4726 13.0658 47.5456C13.542 47.6186 14.1015 47.7524 14.5657 47.9715C14.9109 48.1296 15.2442 48.3608 15.8037 48.1053C16.1013 47.9715 16.3989 47.7889 16.4108 47.5334C16.4108 47.3631 16.2917 47.3144 16.1013 47.2779C15.9108 47.2414 15.1014 47.1806 14.7443 46.8642C14.649 43.3723 15.6608 41.1335 16.5536 39.6248C17.1012 39.5639 17.8035 39.4544 18.4106 39.3814C19.3986 41.6324 20.5056 45.2703 21.1246 48.738C21.2199 49.2612 21.6008 49.3707 22.0531 49.2977C22.5769 49.2003 22.5769 48.8475 23.7672 48.3973C24.7195 48.0323 25.9813 47.7646 26.3384 47.3631C26.6717 46.9738 26.3622 46.4262 25.8623 46.4871C25.3623 46.5479 25.3861 46.4992 25.029 46.5236C24.6362 46.5479 24.5767 46.7669 23.8268 47.0589C23.5292 47.1684 23.2554 47.3023 22.9578 47.3388C21.1127 41.535 20.3271 38.9921 19.9105 36.4492C19.6605 34.9039 20.1961 34.0887 20.0176 33.1032C19.9105 32.5557 20.208 32.2636 20.5294 31.923C21.5532 30.8279 22.565 29.5869 23.3863 28.504C24.2196 27.4089 24.5648 26.7398 24.5648 26.7398C24.5648 26.7398 25.16 27.4333 25.898 28.285C26.6836 29.1854 27.624 30.2317 28.6358 31.0348C29.4215 31.6553 29.9929 31.8986 30.2428 32.7503L30.3262 33.7724C30.4333 35.4271 30.5166 36.4613 30.3738 39.4058C30.1833 40.9388 29.2548 44.6742 28.3621 46.5966C27.2907 48.8962 28.1597 48.8475 28.7192 48.9327C29.2667 49.0178 29.9095 49.176 30.4571 49.4315C30.8499 49.614 31.2308 49.8817 31.8855 49.5897C32.2308 49.4315 32.576 49.2247 32.576 48.9327C32.576 48.738 32.4331 48.6893 32.2189 48.6407C32.0046 48.592 31.0761 48.5311 30.6595 48.1661C30.5523 44.151 31.7784 41.535 33.0759 39.8925C34.3377 39.7951 35.3257 39.5639 36.6113 39.5031C37.6945 43.0073 38.4445 46.3289 39.1587 50.3319C39.2658 50.9281 39.7182 51.0619 40.23 50.9767C40.8252 50.8672 40.8371 50.4536 42.206 49.9425C43.3131 49.5289 44.7653 49.2247 45.17 48.7502C45.5629 48.3 45.2058 47.6673 44.6225 47.7403C44.0392 47.8133 44.0749 47.7524 43.6583 47.7768C43.2059 47.8011 43.1464 48.0566 42.2775 48.3973C41.9322 48.5311 41.6109 48.6772 41.2775 48.7137C39.8372 44.589 37.9445 33.9427 37.7779 32.6165L37.6588 31.8865C38.623 31.5336 39.742 31.4849 41.7299 31.0713C43.3726 30.7306 43.9559 30.5237 44.7534 30.2682C45.17 31.1199 45.551 31.8865 46.4318 33.2735C47.0984 34.3199 48.5031 35.2324 48.5507 36.3518C48.5745 36.729 48.5864 37.1062 48.5864 37.4834C48.6102 38.5054 48.8126 39.5639 48.6459 41.1457C48.5269 41.9609 48.2293 42.9829 47.9674 43.9441C47.7412 44.7593 47.5389 45.538 47.2532 46.1464C46.8961 46.9007 46.8008 47.3874 46.9437 47.6551C47.0627 47.8741 47.3008 47.9106 47.4913 47.935L47.5746 47.9471C47.896 47.9958 48.3721 48.0931 48.7769 48.2878L48.8721 48.3365C49.0268 48.4216 49.2173 48.5068 49.4316 48.5068C49.5744 48.5068 49.7053 48.4703 49.8601 48.4095C50.1101 48.3 50.4077 48.1296 50.4077 47.862C50.4196 47.6308 50.2053 47.5821 50.0744 47.5578C50.0506 47.5456 50.0029 47.5456 49.9434 47.5334C49.7172 47.4969 49.2768 47.4361 49.0387 47.2658C48.9911 44.9418 49.5506 43.0194 50.7053 41.535C50.9909 41.4985 51.2647 41.462 51.5147 41.4255C52.0385 41.3525 52.5265 41.2795 53.0979 41.2673C53.824 43.6156 54.3597 45.903 54.8834 48.8597C54.9549 49.2855 55.2763 49.4802 55.7524 49.395C55.9667 49.3585 56.0857 49.2612 56.2405 49.1517C56.419 49.0178 56.6571 48.8475 57.1689 48.6528C57.407 48.5555 57.6689 48.4825 57.9308 48.3973C58.526 48.2026 59.0854 48.0323 59.3116 47.7768C59.4545 47.6064 59.4902 47.3996 59.4068 47.2049C59.3116 46.9859 59.0854 46.8642 58.8355 46.9007C58.5617 46.9372 58.5022 46.9251 58.4188 46.9251C58.3474 46.9251 58.2879 46.9251 58.1569 46.9251C57.9665 46.9372 57.8594 46.9981 57.7046 47.0954C57.5856 47.1684 57.4308 47.2658 57.1451 47.3753L57.0142 47.4239C56.8475 47.4848 56.6928 47.5578 56.5261 47.5821C55.5143 44.6742 54.074 37.1548 54.1692 35.3176C55.55 35.0743 57.407 34.3199 58.1212 34.0644C58.9188 33.7724 59.4425 33.6629 59.8235 33.5777C60.1449 33.5047 60.3829 33.4439 60.5972 33.3344C60.7877 33.2249 60.9424 33.0302 60.99 32.8112C61.0138 32.6287 60.9781 32.4462 60.871 32.288Z" fill="#832081"/>
<path d="M51.3954 33.2856C52.0501 33.1639 52.2881 32.5191 52.3596 32.2757C52.4429 32.0324 52.4548 31.4727 52.2643 30.9982C52.0501 30.475 51.5858 30.0856 51.0025 30.0735C49.7765 30.037 49.4194 31.0347 49.5146 31.8377C49.6574 32.9449 50.3955 33.4681 51.3954 33.2856Z" fill="#832081"/>
<path d="M16.542 30.0979C16.5777 30.0979 16.6134 30.0979 16.6491 30.0979C17.1491 30.0736 17.5657 29.745 17.8514 29.1124C17.9704 28.8568 18.0656 28.2485 17.9109 27.6766C17.7323 26.9953 17.2443 26.5207 16.6372 26.4356C16.0301 26.3504 15.5421 26.4842 15.2088 26.8249C14.804 27.2386 14.7207 27.847 14.7207 28.2728C14.7326 29.4044 15.4349 30.0979 16.542 30.0979Z" fill="#832081"/>
<path d="M33.9568 28.6865C34.0639 28.65 34.171 28.6135 34.2901 28.5648C34.8733 28.3215 35.2543 27.7861 35.3971 27.0318C35.4566 26.6911 35.3852 25.9489 35.0162 25.3405C34.5877 24.6348 33.8734 24.2576 33.1354 24.355C32.3141 24.4767 31.7546 24.8417 31.4927 25.4379C31.2784 25.9002 31.2665 26.5086 31.4332 27.1534C31.7784 28.4431 32.7545 29.0393 33.9568 28.6865Z" fill="#832081"/>
</svg>
