<svg width="58" height="59" viewBox="0 0 58 59" fill="none" xmlns="http://www.w3.org/2000/svg">
<g filter="url(#filter0_f_5_42)">
<path d="M4.20903 29.2387C4.20742 33.6554 5.35349 37.9667 7.53193 41.767L4 54.7521L17.1975 51.2676C20.8336 53.2644 24.9276 54.3166 29.0939 54.3182H29.1047C42.8251 54.3182 53.9942 43.0753 54 29.259C54.0022 22.5628 51.415 16.2666 46.715 11.5301C42.0143 6.79363 35.7639 4.18388 29.1047 4.18091C15.3819 4.18091 4.21449 15.4221 4.20903 29.2387V29.2387Z" fill="black" fill-opacity="0.2"/>
</g>
<path d="M5.10238 28.9778C5.10113 33.2256 6.20632 37.3733 8.30801 41.0291L4.90131 53.5208L17.6306 50.169C21.1377 52.0885 25.0863 53.1015 29.1049 53.1029H29.1156C42.3491 53.1029 53.1215 42.2884 53.127 28.9965C53.1297 22.5555 50.6341 16.4991 46.1002 11.9426C41.5671 7.3862 35.5382 4.87561 29.1147 4.87273C15.8797 4.87273 5.10775 15.6863 5.10238 28.9778Z" fill="url(#paint0_linear_5_42)"/>
<path d="M4.24511 28.9694C4.2435 33.3704 5.38858 37.6666 7.56506 41.4535L4.03625 54.3927L17.2222 50.9206C20.8551 52.9102 24.9455 53.9588 29.1082 53.9603H29.1189C42.8273 53.9603 53.9865 42.7571 53.9923 28.9897C53.9947 22.317 51.4097 16.0431 46.7138 11.3232C42.0173 6.60346 35.7723 4.00305 29.1189 3.99999C15.4083 3.99999 4.25057 15.2015 4.24502 28.9694H4.24511ZM12.0974 40.8014L11.6052 40.0164C9.53563 36.7117 8.44305 32.8927 8.44484 28.9711C8.44922 17.5276 17.723 8.2177 29.1268 8.2177C34.6491 8.21995 39.8392 10.3816 43.743 14.3045C47.6463 18.2271 49.7942 23.442 49.7926 28.988C49.7878 40.4319 40.5136 49.7431 29.119 49.7431H29.1109C25.4006 49.7411 21.7619 48.7407 18.5884 46.8495L17.8331 46.4L10.0083 48.4601L12.0974 40.8014Z" fill="url(#paint1_linear_5_42)"/>
<path fill-rule="evenodd" clip-rule="evenodd" d="M22.9021 18.5309C22.4366 17.4916 21.9465 17.4707 21.5036 17.4525C21.1413 17.4369 20.7265 17.4379 20.3125 17.4379C19.8982 17.4379 19.2248 17.5942 18.6554 18.2188C18.0856 18.8433 16.4799 20.3531 16.4799 23.4238C16.4799 26.4949 18.7071 29.462 19.0176 29.8788C19.3283 30.295 23.3172 36.7978 29.6342 39.2996C34.8843 41.3786 35.9527 40.9651 37.0922 40.8611C38.2317 40.7571 40.7693 39.3516 41.2872 37.8942C41.8052 36.437 41.8052 35.1879 41.6498 34.9268C41.4944 34.6667 41.08 34.5107 40.4585 34.1985C39.8368 33.8864 36.7814 32.3763 36.2116 32.1682C35.6418 31.9602 35.2274 31.8562 34.8131 32.481C34.3987 33.1053 33.2085 34.5107 32.8457 34.9269C32.4832 35.344 32.1206 35.396 31.499 35.0838C30.8774 34.7708 28.8757 34.1124 26.5011 31.9862C24.6536 30.332 23.4063 28.2891 23.0435 27.6642C22.681 27.04 23.0048 26.7019 23.3165 26.3907C23.5956 26.1111 23.9382 25.6622 24.2489 25.2977C24.559 24.9333 24.6627 24.6732 24.8698 24.257C25.077 23.8402 24.9734 23.4757 24.8181 23.1637C24.6627 22.8515 23.4548 19.7649 22.9021 18.5309Z" fill="white"/>
<defs>
<filter id="filter0_f_5_42" x="0.586284" y="0.767196" width="56.8274" height="57.3986" filterUnits="userSpaceOnUse" color-interpolation-filters="sRGB">
<feFlood flood-opacity="0" result="BackgroundImageFix"/>
<feBlend mode="normal" in="SourceGraphic" in2="BackgroundImageFix" result="shape"/>
<feGaussianBlur stdDeviation="1.70686" result="effect1_foregroundBlur_5_42"/>
</filter>
<linearGradient id="paint0_linear_5_42" x1="29.014" y1="53.5209" x2="29.014" y2="4.87269" gradientUnits="userSpaceOnUse">
<stop stop-color="#20B038"/>
<stop offset="1" stop-color="#60D66A"/>
</linearGradient>
<linearGradient id="paint1_linear_5_42" x1="29.0144" y1="54.3928" x2="29.0144" y2="4.00002" gradientUnits="userSpaceOnUse">
<stop stop-color="#F9F9F9"/>
<stop offset="1" stop-color="white"/>
</linearGradient>
</defs>
</svg>
